<svg viewBox="0 0 220 60" xmlns="http://www.w3.org/2000/svg">
  <defs>
    <style>
      .logo-text { 
        font-family: -apple-system, BlinkMacSystemFont, 'Segoe UI', sans-serif; 
        font-weight: 600; 
        fill: #ffffff; 
      }
      .logo-accent { 
        fill: #0e639c; 
      }
      .github-socket { 
        fill: #333; 
        stroke: #0e639c; 
        stroke-width: 2; 
      }
      .plainhub-plug { 
        fill: #0e639c; 
        stroke: #ffd700; 
        stroke-width: 1; 
      }
      .connection-energy { 
        fill: #ffd700; 
        filter: drop-shadow(0 0 5px #ffd700); 
      }
      .data-flow { 
        fill: none; 
        stroke: #00ff88; 
        stroke-width: 1; 
        opacity: 0.8; 
      }
      .power-surge { 
        fill: #ffd700; 
        opacity: 0.7; 
      }
    </style>
  </defs>
  
  <!-- Background -->
  <rect width="220" height="60" fill="#1e1e1e" rx="8"/>
  
  <!-- Power Connection Concept -->
  <g transform="translate(30, 30)">
    <!-- GitHub Socket (Left) -->
    <g transform="translate(-20, 0)">
      <rect x="-8" y="-12" width="16" height="24" rx="6" class="github-socket"/>
      <!-- Socket holes -->
      <circle cx="-3" cy="-6" r="2" fill="#0e639c"/>
      <circle cx="3" cy="-6" r="2" fill="#0e639c"/>
      <rect x="-1" y="2" width="2" height="8" rx="1" fill="#0e639c"/>
      <!-- GitHub logo hint -->
      <text x="0" y="18" text-anchor="middle" fill="#666" font-size="8">GH</text>
    </g>
    
    <!-- PlainHub Plug (Right) -->
    <g transform="translate(20, 0)">
      <rect x="-8" y="-12" width="16" height="24" rx="4" class="plainhub-plug"/>
      <!-- Plug pins -->
      <circle cx="-3" cy="-6" r="1.5" fill="#ffd700"/>
      <circle cx="3" cy="-6" r="1.5" fill="#ffd700"/>
      <rect x="-1" y="2" width="2" height="6" rx="1" fill="#ffd700"/>
      <!-- PlainHub logo hint -->
      <text x="0" y="18" text-anchor="middle" fill="#ffd700" font-size="8">PH</text>
    </g>
    
    <!-- Connection spark/lightning -->
    <g class="connection-energy">
      <path d="M-4 -6 L0 -2 L-2 0 L4 6 L0 2 L2 0 Z"/>
      <circle cx="0" cy="0" r="4" opacity="0.3"/>
    </g>
    
    <!-- Data flow lines -->
    <g class="data-flow">
      <path d="M-12 -8 Q-6 -10 0 -8 Q6 -6 12 -8">
        <animate attributeName="stroke-dasharray" values="0,50;25,50;0,50" dur="3s" repeatCount="indefinite"/>
      </path>
      <path d="M-12 0 Q-6 2 0 0 Q6 -2 12 0">
        <animate attributeName="stroke-dasharray" values="0,50;25,50;0,50" dur="2.5s" repeatCount="indefinite"/>
      </path>
      <path d="M-12 8 Q-6 10 0 8 Q6 6 12 8">
        <animate attributeName="stroke-dasharray" values="0,50;25,50;0,50" dur="2s" repeatCount="indefinite"/>
      </path>
    </g>
    
    <!-- Power surge particles -->
    <g class="power-surge">
      <circle cx="-15" cy="-10" r="1">
        <animate attributeName="cx" values="-15;15" dur="2s" repeatCount="indefinite"/>
        <animate attributeName="opacity" values="0;1;0" dur="2s" repeatCount="indefinite"/>
      </circle>
      <circle cx="-15" cy="0" r="0.8">
        <animate attributeName="cx" values="-15;15" dur="1.8s" repeatCount="indefinite"/>
        <animate attributeName="opacity" values="0;1;0" dur="1.8s" repeatCount="indefinite"/>
      </circle>
      <circle cx="-15" cy="10" r="1.2">
        <animate attributeName="cx" values="-15;15" dur="2.2s" repeatCount="indefinite"/>
        <animate attributeName="opacity" values="0;1;0" dur="2.2s" repeatCount="indefinite"/>
      </circle>
    </g>
  </g>
  
  <!-- Text -->
  <text x="80" y="25" class="logo-text" font-size="18">Plain</text>
  <text x="80" y="45" class="logo-accent" font-size="18" font-weight="600">Hub</text>
  
  <!-- Status indicator -->
  <g transform="translate(180, 30)">
    <rect x="-10" y="-6" width="20" height="12" rx="6" fill="#333" stroke="#00ff88" stroke-width="1"/>
    <circle cx="0" cy="0" r="2" fill="#00ff88">
      <animate attributeName="opacity" values="0.5;1;0.5" dur="1.5s" repeatCount="indefinite"/>
    </circle>
  </g>
</svg>