<svg viewBox="0 0 240 60" xmlns="http://www.w3.org/2000/svg">
  <defs>
    <style>
      .logo-text { 
        font-family: -apple-system, BlinkMacSystemFont, 'Segoe UI', sans-serif; 
        font-weight: 600; 
        fill: #ffffff; 
      }
      .logo-accent { 
        fill: #0e639c; 
      }
      .plug-male { 
        fill: #0e639c; 
        stroke: #ffffff; 
        stroke-width: 1; 
      }
      .plug-female { 
        fill: #333; 
        stroke: #0e639c; 
        stroke-width: 1.5; 
      }
      .connection-spark { 
        fill: #ffd700; 
        filter: drop-shadow(0 0 4px #ffd700); 
      }
      .energy-flow { 
        fill: none; 
        stroke: #ffd700; 
        stroke-width: 2; 
        opacity: 0.8; 
        filter: drop-shadow(0 0 3px #ffd700); 
      }
      .power-indicator { 
        fill: #00ff00; 
        filter: drop-shadow(0 0 2px #00ff00); 
      }
    </style>
  </defs>
  
  <!-- Background -->
  <rect width="240" height="60" fill="#1e1e1e" rx="8"/>
  
  <!-- Connection Symbol -->
  <g transform="translate(30, 30)">
    <!-- Female socket (GitHub) -->
    <rect x="-15" y="-8" width="12" height="16" rx="3" class="plug-female"/>
    <rect x="-12" y="-4" width="2" height="3" fill="#0e639c"/>
    <rect x="-12" y="1" width="2" height="3" fill="#0e639c"/>
    
    <!-- Male plug (PlainHub) -->
    <rect x="3" y="-8" width="12" height="16" rx="3" class="plug-male"/>
    <rect x="6" y="-4" width="2" height="3" fill="#ffffff"/>
    <rect x="6" y="1" width="2" height="3" fill="#ffffff"/>
    <rect x="9" y="-4" width="2" height="3" fill="#ffffff"/>
    <rect x="9" y="1" width="2" height="3" fill="#ffffff"/>
    
    <!-- Connection point -->
    <circle cx="-3" cy="0" r="3" class="connection-spark"/>
    
    <!-- Electric current flow -->
    <g class="energy-flow">
      <path d="M-20 0 Q-18 -3 -15 0 Q-12 3 -9 0 Q-6 -3 -3 0">
        <animate attributeName="stroke-dasharray" values="0,100;20,100;0,100" dur="2s" repeatCount="indefinite"/>
      </path>
      <path d="M3 0 Q6 -3 9 0 Q12 3 15 0 Q18 -3 21 0">
        <animate attributeName="stroke-dasharray" values="0,100;20,100;0,100" dur="2s" repeatCount="indefinite"/>
      </path>
    </g>
    
    <!-- Power sparks -->
    <g class="connection-spark">
      <circle cx="-3" cy="-8" r="1" opacity="0.8"/>
      <circle cx="-3" cy="8" r="1" opacity="0.8"/>
      <circle cx="-8" cy="-6" r="0.8" opacity="0.6"/>
      <circle cx="2" cy="6" r="0.8" opacity="0.6"/>
    </g>
    
    <!-- Power indicator light -->
    <circle cx="20" cy="-12" r="2" class="power-indicator"/>
  </g>
  
  <!-- Text -->
  <text x="70" y="25" class="logo-text" font-size="18">Plain</text>
  <text x="70" y="45" class="logo-accent" font-size="18" font-weight="600">Hub</text>
  
  <!-- Connection status -->
  <g transform="translate(180, 30)">
    <circle cx="0" cy="0" r="8" fill="#333" stroke="#00ff00" stroke-width="1"/>
    <circle cx="0" cy="0" r="3" fill="#00ff00"/>
    <text x="15" y="5" fill="#00ff00" font-size="10" font-family="monospace">CONNECTED</text>
  </g>
</svg>